<?xml version="1.0" standalone="no"?>
<!DOCTYPE svg PUBLIC "-//W3C//DTD SVG 20010904//EN"
 "http://www.w3.org/TR/2001/REC-SVG-20010904/DTD/svg10.dtd">
<svg version="1.0" xmlns="http://www.w3.org/2000/svg"
 width="1350.000000pt" height="1359.000000pt" viewBox="0 0 1350.000000 1359.000000"
 preserveAspectRatio="xMidYMid meet">
<metadata>
Created by potrace 1.10, written by Peter Selinger 2001-2011
</metadata>
<g transform="translate(0.000000,1359.000000) scale(0.100000,-0.100000)"
fill="#6e3302" stroke="white">
<path d="M6400 12509 c-464 -38 -783 -91 -1165 -194 -33 -9 -78 -20 -100 -26
-42 -10 -295 -94 -330 -109 -11 -4 -49 -18 -85 -31 -36 -12 -69 -26 -74 -31
-6 -4 -16 -8 -24 -8 -11 0 -40 -11 -127 -50 -11 -5 -42 -18 -70 -30 -114 -49
-339 -157 -440 -213 -111 -61 -389 -230 -470 -286 -44 -30 -109 -75 -145 -100
-364 -252 -789 -649 -1125 -1052 -12 -13 -59 -74 -105 -134 -46 -61 -87 -112
-90 -115 -37 -35 -336 -505 -421 -662 -44 -83 -161 -316 -183 -368 -16 -36
-39 -87 -51 -115 -12 -27 -31 -72 -41 -100 -10 -27 -24 -61 -31 -75 -7 -14
-13 -33 -13 -42 0 -9 -4 -19 -9 -23 -5 -3 -13 -20 -17 -37 -3 -18 -10 -39 -14
-48 -5 -8 -18 -44 -30 -80 -12 -36 -26 -74 -30 -85 -13 -32 -81 -267 -105
-365 -7 -30 -21 -84 -30 -120 -24 -95 -44 -194 -60 -290 -8 -47 -17 -94 -20
-105 -5 -21 -16 -104 -41 -315 -70 -608 -22 -1402 119 -1965 9 -33 22 -87 31
-120 21 -86 42 -163 59 -220 8 -27 22 -72 30 -100 27 -90 99 -290 108 -299 5
-6 9 -17 9 -25 0 -9 7 -29 15 -45 8 -15 15 -33 15 -38 0 -5 9 -30 21 -56 18
-42 29 -68 59 -137 20 -46 83 -183 104 -225 59 -116 140 -267 167 -310 9 -14
37 -63 63 -109 27 -46 52 -89 57 -95 6 -6 38 -54 72 -106 100 -152 263 -380
287 -400 3 -3 30 -36 60 -75 30 -38 57 -72 60 -75 3 -3 49 -54 102 -115 105
-121 425 -438 528 -525 36 -30 67 -57 70 -60 20 -22 189 -155 307 -241 236
-174 343 -244 533 -351 19 -11 49 -29 67 -39 103 -63 366 -194 538 -269 28
-12 64 -27 80 -34 17 -8 53 -22 80 -31 28 -10 55 -22 60 -25 6 -4 21 -11 35
-15 26 -7 179 -61 215 -75 32 -13 206 -68 250 -79 22 -6 67 -17 100 -26 60
-16 120 -32 238 -60 177 -44 543 -98 762 -115 467 -35 512 -36 770 -20 349 22
435 31 720 75 147 22 349 62 380 75 11 5 38 11 60 15 22 4 60 13 85 20 25 7
72 21 105 30 106 30 118 34 230 71 61 19 178 61 260 91 132 49 182 69 260 103
60 26 440 215 500 248 116 65 350 209 438 270 45 32 107 75 137 97 353 246
772 636 1076 1000 352 422 665 926 874 1410 23 53 63 151 90 220 4 11 25 67
45 125 20 58 41 114 45 125 5 11 25 74 45 140 20 66 40 134 45 151 6 16 14 50
19 75 6 24 17 71 26 104 58 211 121 589 144 860 20 230 33 561 27 653 -3 54
-11 183 -16 287 -6 105 -14 217 -20 250 -5 33 -14 98 -20 145 -24 188 -75 472
-99 560 -6 19 -17 60 -25 90 -57 209 -81 294 -118 405 -16 50 -33 97 -37 105
-5 9 -12 30 -15 48 -4 17 -12 34 -17 37 -5 4 -9 14 -9 23 0 9 -7 30 -15 46 -8
15 -15 33 -15 40 0 6 -6 22 -13 36 -7 14 -21 48 -31 75 -42 111 -207 453 -282
583 -114 195 -168 287 -176 297 -5 6 -41 60 -82 121 -64 97 -107 158 -199 279
-218 289 -488 581 -776 840 -74 66 -304 257 -331 274 -14 9 -30 20 -36 26 -6
5 -22 17 -34 25 -12 8 -50 35 -84 61 -33 25 -95 67 -136 94 -41 28 -77 52 -80
56 -7 7 -269 164 -345 206 -84 47 -399 203 -465 232 -30 13 -68 30 -85 37 -44
19 -196 77 -300 114 -49 18 -99 36 -110 40 -34 13 -108 38 -150 50 -22 6 -62
18 -90 26 -78 24 -155 44 -220 59 -33 8 -89 21 -125 30 -249 60 -603 111 -945
135 -172 12 -580 11 -735 -1z m708 -851 c20 -20 14 -55 -10 -61 -12 -4 -95 -3
-185 0 -148 6 -165 8 -174 25 -24 45 -11 48 179 48 125 0 182 -4 190 -12z
m-640 -30 c4 -31 4 -31 -123 -47 -217 -27 -265 -26 -265 8 0 32 27 43 122 53
51 5 95 11 97 14 3 3 41 3 86 2 79 -3 80 -3 83 -30z m1067 -8 c17 -5 55 -11
85 -15 83 -10 150 -34 150 -53 -1 -48 -16 -50 -195 -19 -49 9 -108 19 -130 23
-36 6 -65 26 -65 45 0 4 7 14 15 22 15 15 80 14 140 -3z m-1721 -63 c15 -24
-3 -50 -40 -58 -62 -14 -162 -38 -224 -54 -47 -12 -71 -13 -87 -6 -48 22 -17
62 62 79 28 6 79 18 115 27 157 38 158 38 174 12z m2309 -68 c39 -11 90 -25
112 -30 111 -27 171 -61 159 -92 -8 -21 -59 -22 -111 -3 -54 20 -174 56 -188
56 -19 0 -75 31 -75 41 0 13 19 49 25 49 3 0 38 -9 78 -21z m-2929 -101 c16
-27 -14 -51 -96 -78 -40 -13 -77 -26 -83 -30 -5 -4 -42 -18 -80 -32 -75 -28
-105 -24 -105 11 0 24 14 35 80 60 30 12 64 26 75 32 42 21 161 58 179 56 10
-1 24 -10 30 -19z m3522 -102 c16 -7 44 -20 63 -27 72 -29 209 -98 216 -108 9
-16 -3 -48 -20 -55 -8 -3 -54 13 -103 35 -48 23 -107 50 -132 60 -91 41 -110
53 -110 75 0 11 3 24 7 27 11 11 48 8 79 -7z m-4126 -141 c20 -24 2 -50 -58
-81 -143 -76 -198 -107 -206 -115 -6 -5 -25 -9 -44 -9 -30 0 -33 2 -30 27 3
28 13 35 188 131 131 72 130 71 150 47z m4790 -205 c143 -86 186 -121 177
-143 -10 -26 -53 -21 -100 11 -23 16 -86 55 -139 87 -77 45 -98 62 -98 80 0
53 24 48 160 -35z m-5356 -123 c28 -21 10 -43 -91 -114 -48 -34 -111 -78 -139
-98 -55 -39 -84 -39 -84 0 0 19 29 45 138 124 75 55 142 101 148 101 5 0 18
-6 28 -13z m5806 -186 c3 -4 37 -31 75 -61 39 -30 81 -65 95 -76 14 -12 38
-33 55 -47 27 -23 28 -27 17 -51 -16 -36 -39 -29 -117 38 -33 29 -80 67 -105
86 -25 19 -55 44 -67 54 -25 21 -31 61 -10 69 13 6 49 -2 57 -12z m-6319 -201
c10 -6 19 -18 19 -28 0 -27 -244 -252 -273 -252 -29 0 -41 23 -27 50 12 22
241 240 253 240 5 0 17 -5 28 -10z m3386 -200 c254 -33 505 -219 613 -455 61
-133 73 -189 74 -345 1 -149 -9 -181 -64 -214 -54 -32 -88 -15 -154 78 -25 35
-62 75 -83 91 -21 16 -40 32 -43 36 -3 4 -25 17 -50 29 -25 12 -53 26 -63 31
-32 17 -164 27 -241 19 -79 -9 -193 -54 -233 -92 -35 -33 -28 -37 35 -21 31 8
67 17 78 20 12 3 59 -3 104 -12 208 -42 350 -209 350 -412 0 -160 -101 -290
-263 -337 -86 -25 -269 -23 -371 3 -249 65 -449 236 -550 471 -72 166 -82 397
-26 564 20 58 86 190 112 222 205 255 467 364 775 324z m3517 -122 c101 -107
116 -127 114 -153 -6 -58 -32 -43 -156 85 -122 128 -140 153 -121 176 24 29
50 11 163 -108z m-7356 -160 c3 -22 -14 -49 -80 -130 -115 -142 -139 -168
-155 -168 -19 0 -33 41 -21 63 9 18 95 128 173 220 46 55 78 60 83 15z m7734
-288 c32 -41 79 -105 104 -142 38 -57 43 -71 34 -88 -14 -27 -45 -25 -65 3 -9
12 -54 74 -100 139 -79 108 -96 144 -78 162 19 18 52 -5 105 -74z m-8122 -239
c0 -9 -28 -60 -63 -113 -34 -54 -75 -119 -92 -145 -35 -55 -56 -64 -74 -29
-16 28 -8 44 106 218 70 107 91 127 111 101 6 -9 12 -24 12 -32z m8437 -245
c11 -13 52 -85 92 -160 71 -132 73 -137 56 -156 -31 -34 -44 -25 -89 60 -13
25 -38 72 -56 105 -65 118 -71 134 -60 155 14 27 34 25 57 -4z m-8767 -295
c11 -22 9 -29 -47 -151 -22 -47 -48 -107 -59 -133 -20 -51 -42 -71 -68 -61
-23 9 -20 43 10 110 14 33 35 79 46 104 64 148 92 179 118 131z m9047 -273 c6
-7 19 -35 29 -63 10 -27 24 -61 31 -75 7 -14 13 -30 13 -36 0 -7 7 -25 15 -40
8 -16 15 -37 15 -46 0 -9 5 -20 10 -23 14 -9 13 -48 -2 -63 -20 -20 -44 -14
-57 16 -7 15 -29 70 -48 122 -20 52 -44 114 -55 138 -14 32 -16 47 -8 62 12
22 43 26 57 8z m-5637 -313 l0 -34 -72 -3 -73 -3 0 -30 c0 -29 1 -30 55 -33
64 -4 75 -11 66 -46 -6 -24 -11 -26 -60 -26 -57 0 -81 -15 -70 -44 7 -18 9
-18 80 -16 70 2 98 -25 74 -71 -10 -17 -22 -19 -110 -19 -54 0 -105 3 -114 6
-14 5 -16 31 -16 180 l0 174 120 0 120 0 0 -35z m325 18 c38 -18 45 -42 19
-67 -19 -20 -27 -20 -66 0 -24 12 -36 13 -54 5 -13 -6 -24 -15 -24 -21 0 -15
41 -37 80 -44 19 -3 48 -17 63 -31 36 -35 39 -111 5 -141 -58 -49 -99 -54
-183 -25 -39 14 -51 23 -53 42 -2 13 3 32 10 42 13 17 16 17 43 3 34 -18 111
-21 120 -5 10 15 -24 37 -68 44 -23 4 -52 20 -74 41 -33 31 -35 37 -30 76 8
63 53 98 124 98 29 0 68 -8 88 -17z m428 -4 c9 -35 -2 -49 -42 -49 -20 0 -42
-5 -49 -12 -8 -8 -12 -51 -12 -129 0 -94 -3 -121 -16 -133 -19 -19 -50 -21
-61 -3 -4 6 -10 71 -13 142 l-5 130 -37 0 c-49 1 -74 24 -59 54 11 20 19 21
150 21 132 0 139 -1 144 -21z m-4413 -24 c13 -16 8 -81 -10 -113 -11 -20 -50
-151 -50 -167 0 -22 -41 -95 -53 -95 -34 0 -46 45 -27 104 5 17 25 82 45 145
20 63 41 121 47 128 14 17 33 16 48 -2z m5250 -36 c19 -15 35 -40 46 -75 15
-49 15 -55 -1 -99 -19 -49 -61 -91 -101 -101 -49 -13 -113 30 -140 95 -19 45
-18 71 5 123 36 84 120 109 191 57z m-351 -8 c21 -20 31 -38 31 -59 0 -34 -32
-80 -66 -92 -13 -5 -24 -14 -24 -20 0 -10 8 -13 49 -14 13 -1 30 -10 37 -21
12 -18 11 -24 -2 -43 -14 -20 -23 -22 -114 -22 -89 0 -100 2 -110 20 -15 28 9
81 52 114 19 14 39 26 45 26 16 0 46 38 38 49 -8 14 -48 14 -62 0 -27 -27 -85
17 -64 48 13 21 68 41 112 42 39 1 52 -4 78 -28z m662 2 c6 -15 10 -57 9 -93
-2 -89 -2 -87 19 -93 31 -8 43 -40 25 -65 -13 -19 -25 -22 -93 -22 -46 0 -82
5 -89 12 -26 26 -5 83 29 76 10 -2 15 11 17 47 l3 50 -38 0 c-32 0 -39 4 -41
22 -3 17 8 30 50 57 66 43 95 46 109 9z m333 3 c56 -23 80 -69 81 -151 0 -128
-58 -203 -151 -192 -60 6 -102 44 -85 76 12 22 45 28 56 11 9 -14 68 -13 83 2
21 21 13 28 -25 26 -49 -1 -80 9 -106 35 -18 18 -22 34 -22 84 0 67 8 79 70
108 38 18 58 18 99 1z m-2836 -135 c2 -20 -2 -37 -10 -42 -7 -5 -451 -9 -985
-9 -966 0 -973 0 -993 20 -20 20 -19 29 3 58 8 9 214 12 996 10 l986 -3 3 -34z
m5252 23 c10 -11 11 -23 4 -42 l-9 -27 -979 -3 c-715 -1 -982 1 -992 9 -17 14
-18 51 -2 67 9 9 242 12 989 12 872 0 978 -2 989 -16z m1209 -189 c7 -27 19
-75 27 -105 7 -30 18 -73 23 -95 15 -57 13 -101 -4 -115 -23 -19 -52 12 -60
63 -9 54 -31 148 -51 214 -20 66 -12 95 24 91 23 -3 29 -10 41 -53z m-9684
-295 c12 -14 16 -27 11 -47 -7 -30 -32 -166 -46 -250 -10 -65 -15 -73 -45 -73
-32 0 -37 23 -25 106 6 38 15 98 20 134 12 80 37 150 54 150 7 0 21 -9 31 -20z
m2357 -145 c8 -17 8 -37 2 -62 -9 -36 -11 -38 -68 -48 l-59 -10 -1 -185 -1
-185 230 0 230 0 0 185 0 185 -48 10 c-27 6 -55 19 -63 30 -21 28 -18 82 5 95
21 11 429 14 469 4 19 -5 22 -13 22 -54 0 -56 -9 -66 -72 -75 l-48 -7 0 -468
0 -468 23 -6 c12 -3 37 -6 54 -6 37 0 47 -21 41 -81 l-3 -34 -244 -3 c-264 -3
-261 -3 -261 51 0 48 16 67 58 67 72 0 73 1 70 220 l-3 195 -228 0 -229 0 -3
-191 c-1 -106 1 -197 5 -204 4 -6 31 -15 60 -18 48 -6 54 -10 61 -36 5 -16 5
-42 2 -57 l-6 -29 -251 2 -251 3 -3 43 c-4 51 10 72 47 72 14 0 36 3 49 6 l22
6 0 469 0 468 -45 7 c-26 3 -53 13 -60 21 -21 21 -19 89 3 102 10 6 110 11
250 11 l232 0 12 -25z m1792 15 c3 -3 8 -64 12 -135 8 -152 6 -156 -70 -146
l-49 6 -26 75 -27 75 -164 0 -165 0 -3 -193 -2 -192 25 -10 c33 -13 155 -13
175 0 8 5 20 35 25 67 l10 58 54 3 c37 2 57 -1 62 -10 10 -15 12 -348 3 -372
-4 -11 -19 -16 -53 -16 -25 0 -51 4 -57 8 -7 4 -16 32 -20 62 l-9 55 -105 0
-105 0 0 -205 0 -205 50 0 c56 0 50 -11 80 149 16 86 36 126 63 126 49 -1 66
-62 47 -175 -7 -44 -9 -84 -5 -88 4 -4 35 -7 70 -5 l63 3 27 50 c15 28 31 61
35 75 4 14 16 37 27 52 16 23 24 26 51 21 18 -3 45 -12 61 -20 l28 -15 -7 -96
c-4 -53 -11 -107 -16 -120 -5 -13 -9 -34 -9 -47 0 -13 -5 -27 -11 -31 -6 -3
-84 -6 -173 -5 -124 2 -165 -1 -173 -11 -6 -7 -13 -35 -16 -63 -3 -27 -13 -97
-22 -155 -24 -164 -45 -323 -60 -470 -33 -320 -43 -409 -49 -428 -11 -34 12
-35 62 -4 197 125 556 272 793 326 32 7 37 18 55 126 14 87 30 170 57 295 8
39 20 95 26 125 7 30 16 71 21 90 5 19 18 76 30 125 45 195 120 445 142 473
14 17 53 15 68 -3 16 -19 8 -87 -18 -171 -11 -33 -22 -78 -24 -100 l-3 -39 39
2 c22 2 42 7 45 12 3 5 6 213 5 463 l-1 453 -34 12 c-19 7 -42 12 -52 12 -24
1 -41 43 -33 85 6 33 9 35 59 41 85 10 616 0 672 -13 135 -32 242 -105 310
-211 68 -107 89 -207 82 -386 -6 -123 -11 -149 -52 -250 -25 -61 -94 -162
-142 -205 -31 -28 -92 -68 -137 -90 -107 -52 -205 -62 -548 -58 l-255 3 -11
-55 c-6 -30 -17 -84 -25 -120 -36 -157 -86 -399 -98 -470 -5 -30 -12 -68 -15
-84 -6 -26 -5 -28 12 -21 10 4 53 14 94 21 41 7 125 22 185 33 61 11 145 21
187 21 76 0 78 1 109 35 34 37 83 47 107 23 17 -17 15 -35 -12 -92 -59 -127
-95 -286 -64 -286 15 0 35 27 149 195 38 55 78 106 89 113 48 30 90 -41 75
-127 -6 -39 16 -153 35 -177 31 -37 106 -7 196 78 28 27 58 54 66 61 15 12 19
38 48 297 26 231 69 398 115 443 44 45 83 -1 64 -76 -27 -104 -62 -323 -84
-517 -8 -69 -17 -150 -20 -180 l-7 -55 29 31 c15 17 45 51 65 77 24 28 58 55
92 71 l55 26 45 -19 c71 -31 100 -84 104 -193 2 -49 6 -88 9 -88 8 0 126 72
139 85 6 6 45 36 86 68 84 64 118 73 118 30 0 -16 -6 -35 -13 -43 -33 -42
-166 -144 -260 -200 -95 -58 -107 -68 -126 -112 -12 -26 -21 -50 -21 -53 0
-13 -68 -115 -99 -149 -49 -52 -125 -100 -189 -119 -48 -14 -58 -14 -98 0 -54
18 -74 45 -74 97 0 84 100 176 309 283 47 24 92 54 100 66 12 16 16 46 16 113
0 76 -3 95 -19 113 -27 30 -47 26 -99 -19 -43 -38 -89 -120 -165 -291 -21 -47
-41 -63 -66 -53 -25 10 -36 49 -39 142 -2 50 -6 94 -9 97 -3 3 -23 -11 -44
-30 -21 -20 -67 -50 -101 -67 -77 -38 -129 -35 -175 8 -42 41 -59 81 -65 153
l-6 65 -21 -27 c-12 -14 -41 -56 -66 -94 -25 -37 -65 -87 -89 -110 -36 -35
-51 -43 -81 -43 -30 0 -44 6 -64 31 -24 29 -26 37 -26 134 0 70 5 114 16 140
8 21 12 41 7 45 -23 21 -500 -53 -530 -82 -9 -9 -20 -57 -28 -124 -8 -60 -17
-118 -20 -129 -3 -11 -10 -56 -15 -100 -9 -73 -20 -152 -49 -350 -8 -49 -7
-91 0 -142 8 -52 8 -96 0 -165 -12 -103 -29 -148 -65 -172 -23 -14 -26 -14
-51 6 l-28 22 8 206 7 207 -44 35 c-120 98 -249 125 -545 113 -163 -6 -185 -9
-193 -25 -6 -11 -15 -88 -20 -172 -6 -84 -15 -193 -20 -243 -5 -49 -13 -148
-16 -219 -5 -107 -10 -132 -25 -147 -24 -24 -44 -24 -68 0 -30 30 -35 80 -22
224 6 73 11 175 11 227 0 52 5 149 10 214 l10 120 -25 26 c-37 39 -34 86 10
143 24 31 35 56 35 79 0 18 4 76 10 128 6 52 15 151 20 220 6 69 17 170 24
225 8 55 21 150 30 210 8 61 22 153 30 205 31 196 36 232 31 241 -3 4 -102 8
-219 7 -117 -1 -218 2 -224 6 -19 11 -15 81 6 99 9 8 37 17 62 19 l45 3 0 470
0 470 -55 9 c-30 4 -58 13 -62 20 -15 23 -9 95 10 105 18 11 845 11 856 1z
m3450 -6 c9 -8 16 -22 16 -30 0 -8 4 -22 9 -32 6 -9 26 -66 46 -127 20 -60 40
-117 44 -125 5 -9 12 -31 16 -50 4 -19 11 -41 15 -50 5 -8 18 -44 30 -80 12
-36 25 -72 30 -80 4 -9 11 -31 15 -50 4 -19 11 -41 16 -50 4 -8 24 -64 44
-125 20 -60 40 -117 44 -125 5 -9 12 -30 16 -49 9 -40 29 -81 47 -92 7 -5 25
-9 40 -9 31 0 42 -24 36 -81 l-3 -34 -241 -3 -241 -2 -6 29 c-3 15 -3 41 2 57
6 25 13 30 55 36 26 4 50 9 53 11 4 5 -17 80 -42 147 l-13 35 -199 3 -199 2
-18 -62 c-10 -35 -22 -76 -27 -92 -11 -37 0 -46 58 -46 47 0 63 -17 63 -67 0
-54 0 -54 -221 -51 l-204 3 0 55 0 55 38 6 c21 3 42 10 47 15 5 5 36 92 70
194 34 102 65 194 70 205 5 11 32 90 60 175 28 85 55 164 60 175 5 11 30 83
55 160 26 77 52 146 57 153 16 19 242 17 262 -4z m-5954 -9 c9 -11 15 -81 21
-233 9 -253 11 -247 -80 -238 -29 2 -56 7 -58 10 -6 6 -23 101 -44 241 -7 44
-16 86 -22 93 -6 8 -41 12 -108 12 l-99 0 2 -472 3 -473 103 -11 c57 -7 108
-16 113 -21 6 -6 9 -30 7 -54 l-3 -44 -342 -3 c-339 -2 -342 -2 -348 19 -4 11
-4 36 -1 54 7 37 2 35 136 52 l65 8 3 473 2 472 -99 0 c-67 0 -102 -4 -108
-12 -6 -7 -16 -49 -22 -93 -33 -215 -36 -227 -55 -241 -22 -15 -103 -19 -125
-5 -19 12 -2 440 18 465 12 14 67 16 521 16 445 0 509 -2 520 -15z m5108 -35
c3 -60 -7 -72 -67 -78 -28 -2 -55 -10 -61 -17 -7 -8 -9 -168 -8 -471 l3 -459
51 -5 c28 -3 59 -11 68 -19 17 -14 23 -86 8 -95 -13 -8 -487 -17 -506 -10 -12
4 -16 19 -16 55 0 54 15 69 69 69 65 0 61 -34 61 469 0 342 -3 460 -12 469 -7
7 -26 12 -42 12 -69 0 -76 7 -76 71 l0 59 263 -2 262 -3 3 -45z m1965 17 c3
-18 3 -44 0 -59 -5 -27 -32 -38 -98 -38 -18 0 -38 -6 -44 -14 -8 -9 -10 -140
-9 -467 l3 -454 157 -3 156 -2 15 30 c9 16 19 44 22 62 4 18 11 38 15 43 4 6
11 26 15 45 4 19 11 40 15 45 4 6 11 25 15 44 l7 33 70 -4 c38 -2 72 -9 76
-16 5 -6 5 -37 1 -69 -4 -32 -14 -118 -23 -192 -8 -74 -19 -138 -24 -143 -5
-5 -198 -9 -452 -9 -477 1 -460 -1 -460 54 0 38 32 67 74 67 71 0 66 -36 66
462 0 291 -4 456 -10 469 -7 12 -21 19 -40 19 -16 0 -40 4 -54 10 -23 8 -26
15 -26 58 0 27 3 52 7 55 3 4 122 7 263 7 l257 0 6 -33z m1091 -149 c19 -46
39 -314 25 -339 -11 -22 -42 -25 -56 -6 -6 6 -13 62 -17 122 -4 61 -11 134
-17 163 -9 46 -8 56 7 73 25 28 43 23 58 -13z m-9895 -327 c18 -12 11 -324 -8
-359 -16 -30 -42 -25 -60 12 -11 25 -12 55 -2 184 6 84 13 158 17 163 7 11 35
11 53 0z m9936 -472 c0 -177 -5 -213 -32 -224 -24 -9 -56 31 -48 59 3 12 8 89
12 171 3 83 10 155 15 162 6 7 17 9 31 4 21 -8 22 -13 22 -172z m-9929 -181
c8 -12 19 -120 30 -279 6 -84 6 -86 -17 -92 -42 -11 -47 5 -70 225 -14 127 -9
158 26 158 13 0 27 -5 31 -12z m6466 -188 c18 -32 32 -36 72 -20 33 12 36 -10
5 -41 -11 -11 -20 -30 -21 -42 0 -43 -9 -67 -23 -67 -12 0 -15 14 -15 59 0 66
-14 86 -31 47 -9 -19 -21 -26 -48 -28 -33 -3 -36 -6 -41 -41 -10 -75 -25 -42
-28 61 l-3 102 58 0 c54 0 59 -2 75 -30z m743 -6 c11 -27 12 -40 4 -50 -5 -7
-9 -30 -7 -51 2 -31 7 -39 25 -41 36 -5 51 39 30 84 -23 46 -22 55 5 45 13 -4
25 -18 28 -30 7 -29 24 -32 28 -5 2 13 16 25 39 33 30 11 37 11 51 -3 15 -15
14 -16 -6 -16 -35 0 -29 -39 8 -51 33 -12 40 -42 17 -73 -10 -13 -24 -17 -57
-14 -49 3 -58 21 -13 26 55 6 59 11 28 37 -43 35 -60 31 -87 -17 -21 -38 -28
-43 -63 -46 -56 -3 -69 9 -72 65 -3 64 7 143 18 143 5 0 16 -16 24 -36z m413
-64 c-3 -116 -22 -140 -26 -35 -2 49 -7 74 -18 82 -21 15 -2 53 27 53 19 0 20
-6 17 -100z m187 90 c3 -5 -9 -13 -27 -18 -42 -10 -43 -34 -2 -42 47 -10 54
-18 54 -62 0 -49 -22 -78 -59 -78 -58 1 -90 60 -71 132 7 23 19 51 27 61 17
18 68 23 78 7z m239 -14 c3 -13 3 -37 0 -53 -4 -20 -1 -33 10 -42 21 -18 20
-31 -8 -64 -20 -25 -28 -28 -72 -25 -60 4 -65 22 -7 26 31 2 46 9 54 24 13 23
4 35 -30 40 -32 4 -37 21 -9 33 13 6 24 20 26 33 3 20 -1 22 -37 22 -30 0 -41
4 -41 15 0 11 13 15 54 15 49 0 54 -2 60 -24z m-1323 -48 l17 -21 11 22 c14
25 31 19 31 -10 0 -19 35 -58 52 -59 4 0 8 17 10 37 4 49 28 57 28 9 0 -23 -5
-39 -15 -42 -8 -4 -15 -19 -15 -34 0 -36 -11 -43 -38 -24 -14 10 -22 26 -22
45 0 19 -5 29 -15 29 -8 0 -15 -6 -15 -14 0 -8 -12 -28 -26 -45 -18 -22 -34
-31 -57 -31 -48 0 -67 24 -67 86 0 48 3 55 28 69 33 18 71 11 93 -17z m270 16
c24 -12 30 -21 27 -42 -4 -36 -38 -44 -38 -8 0 27 -17 44 -30 30 -4 -5 -10
-29 -12 -54 l-3 -45 38 -5 c51 -7 48 -25 -4 -25 -59 0 -83 33 -74 99 6 36 11
46 26 46 11 0 19 5 19 10 0 14 16 12 51 -6z m139 6 c0 -5 -10 -20 -22 -32 -16
-16 -25 -39 -28 -73 -7 -75 -25 -56 -25 28 0 71 0 72 27 72 14 0 30 3 34 8 10
10 14 9 14 -3z m760 -26 c0 -16 -16 -19 -25 -4 -8 13 4 32 16 25 5 -4 9 -13 9
-21z m1976 -72 c20 -13 21 -37 9 -127 -31 -220 -43 -255 -82 -255 -25 0 -30
41 -15 129 7 47 19 121 26 164 13 84 31 110 62 89z m-1976 -47 c0 -8 -7 -15
-15 -15 -8 0 -15 7 -15 15 0 8 7 15 15 15 8 0 15 -7 15 -15z m-7816 -290 c8
-8 18 -37 21 -63 4 -26 11 -60 15 -77 46 -162 50 -218 13 -223 -28 -4 -35 10
-67 138 -40 161 -48 211 -35 226 15 18 34 18 53 -1z m9681 -315 c6 -20 -10
-83 -62 -245 -30 -93 -37 -105 -69 -105 -21 0 -24 5 -24 35 0 19 4 43 9 53 5
9 19 51 31 92 23 76 47 155 55 178 7 20 53 14 60 -8z m-9500 -330 c7 -14 28
-65 45 -115 18 -49 41 -110 52 -134 25 -55 18 -91 -17 -91 -20 0 -29 9 -45 43
-32 69 -110 281 -110 299 0 36 55 34 75 -2z m9293 -292 c2 -9 -6 -38 -18 -65
-12 -26 -25 -57 -30 -68 -79 -184 -108 -223 -139 -192 -18 18 -13 45 18 111
45 93 87 189 95 214 6 19 14 23 39 20 20 -2 33 -9 35 -20z m-9050 -290 c5 -7
32 -56 60 -108 27 -52 61 -117 76 -144 31 -59 32 -73 6 -81 -28 -9 -41 3 -92
93 -100 176 -121 226 -101 245 11 11 40 8 51 -5z m8756 -290 c8 -14 7 -24 -3
-40 -8 -13 -20 -34 -27 -48 -36 -68 -141 -220 -157 -225 -20 -7 -47 10 -47 29
0 7 19 41 43 77 24 35 60 93 82 129 62 105 82 119 109 78z m-8392 -333 c26
-39 58 -83 70 -99 44 -55 87 -121 88 -133 0 -6 -10 -15 -22 -19 -26 -8 -68 36
-161 167 -75 105 -84 124 -67 144 22 26 42 13 92 -60z m8028 -212 c0 -22 -23
-56 -96 -143 -12 -14 -42 -50 -66 -80 -46 -58 -76 -71 -98 -45 -11 13 -10 21
10 48 39 53 143 179 181 219 41 42 69 43 69 1z m-7640 -260 c18 -21 71 -78
116 -126 82 -85 97 -114 72 -135 -23 -18 -53 4 -158 117 -117 125 -124 134
-115 161 10 33 49 25 85 -17z m7219 -220 c12 -27 10 -30 -101 -136 -62 -60
-125 -115 -140 -123 -25 -13 -29 -13 -49 7 -20 20 -20 21 -2 41 10 12 38 40
63 62 24 23 77 71 117 109 39 37 78 67 86 67 8 0 19 -12 26 -27z m-6719 -274
c162 -134 180 -151 180 -169 0 -10 -7 -23 -15 -30 -18 -15 -32 -6 -189 120
-109 87 -126 110 -106 135 21 26 43 17 130 -56z m6233 -151 c2 -7 0 -20 -4
-30 -8 -14 -182 -147 -252 -191 -38 -25 -71 -19 -75 13 -2 21 10 33 80 80 46
30 85 57 88 60 3 4 28 23 55 43 50 37 99 48 108 25z m-5774 -190 c20 -12 38
-24 41 -28 3 -3 46 -30 95 -59 129 -78 141 -91 115 -131 -12 -20 -47 -2 -206
102 -97 64 -124 87 -124 104 0 13 7 24 18 27 9 3 19 5 21 6 2 0 20 -9 40 -21z
m5236 -168 c12 -19 -5 -46 -38 -63 -17 -9 -59 -32 -92 -50 -33 -18 -89 -48
-124 -67 l-63 -34 -20 23 c-17 22 -17 25 -2 42 10 11 45 32 78 49 34 16 93 47
131 69 69 39 118 51 130 31z m-4632 -174 c40 -18 87 -40 106 -47 103 -42 136
-64 136 -89 0 -34 -34 -38 -94 -12 -25 11 -75 33 -111 49 -113 49 -145 69
-148 93 -3 21 11 39 31 40 5 0 41 -15 80 -34z m4045 -126 c2 -22 -4 -29 -40
-47 -24 -11 -65 -29 -93 -38 -27 -10 -54 -22 -59 -27 -6 -4 -17 -8 -25 -8 -9
0 -29 -7 -44 -15 -33 -17 -77 -22 -95 -11 -7 4 -12 18 -12 30 0 21 17 30 158
84 173 67 205 71 210 32z m-3415 -119 c51 -16 120 -38 155 -47 49 -14 64 -23
68 -40 15 -60 -25 -58 -251 12 -62 20 -113 42 -119 53 -3 4 -2 17 1 29 7 30
35 28 146 -7z m2795 -92 c3 -22 -3 -29 -30 -39 -37 -14 -118 -34 -221 -56 -38
-7 -73 -17 -78 -20 -13 -7 -49 24 -49 42 0 19 45 40 115 53 103 19 186 38 193
45 3 4 20 6 37 4 24 -2 31 -8 33 -29z m-2173 -60 c28 -5 86 -14 130 -20 78
-11 115 -29 115 -55 0 -35 -48 -34 -287 6 -75 13 -108 34 -97 64 7 18 58 21
139 5z m1520 -41 c40 -18 33 -52 -12 -66 -45 -13 -316 -34 -338 -26 -8 4 -15
16 -15 29 0 32 35 43 170 51 63 4 124 10 135 15 27 11 31 11 60 -3z m-637 -44
c6 -2 12 -12 12 -22 0 -40 -21 -44 -194 -40 -145 3 -166 5 -185 22 -20 18 -20
20 -4 38 15 17 29 18 187 12 94 -3 177 -7 184 -10z"/>
<path d="M6660 10161 c-138 -26 -191 -47 -294 -115 -176 -116 -282 -284 -320
-509 -13 -78 -14 -100 0 -195 8 -59 19 -115 24 -124 6 -10 10 -24 10 -31 0
-20 68 -149 93 -176 21 -22 26 -23 122 -18 60 3 118 13 145 23 65 26 148 80
189 125 34 36 101 149 101 170 0 14 -54 11 -76 -6 -48 -36 -124 -1 -124 58 0
32 96 116 174 152 111 51 149 58 279 53 67 -2 131 -9 142 -15 11 -7 50 -26 87
-43 81 -38 159 -106 205 -178 39 -61 58 -72 81 -48 14 14 17 38 17 144 0 77
-5 145 -13 172 -31 102 -66 182 -103 238 -39 58 -143 172 -157 172 -4 0 -19
11 -33 24 -34 32 -130 82 -171 91 -18 4 -37 11 -43 15 -9 8 -119 26 -205 35
-19 2 -78 -4 -130 -14z m-101 -141 c10 0 35 -16 55 -36 20 -20 52 -40 70 -45
55 -15 88 -54 94 -109 4 -43 1 -51 -29 -84 -27 -29 -44 -38 -79 -43 -25 -3
-52 -11 -60 -17 -37 -29 -72 -37 -109 -25 -20 6 -43 17 -51 24 -8 7 -32 15
-54 18 -58 9 -106 63 -106 121 0 34 37 94 63 101 12 4 38 24 57 45 34 37 91
63 118 54 8 -2 22 -4 31 -4z"/>
<path d="M6460 9920 c-20 -22 -44 -40 -52 -40 -23 0 -48 -33 -48 -63 0 -29 24
-47 65 -47 14 0 41 -11 59 -25 41 -32 56 -31 91 1 21 20 39 26 69 26 22 -1 46
4 53 10 33 27 -4 109 -42 94 -25 -9 -64 11 -71 38 -4 16 -17 29 -36 35 -45 16
-47 15 -88 -29z"/>
<path d="M7016 9252 c-3 -6 -2 -13 3 -16 5 -4 20 -27 33 -54 20 -41 23 -62 23
-157 0 -98 -3 -116 -26 -165 -15 -30 -41 -70 -58 -89 -49 -55 -37 -68 28 -29
50 30 90 75 113 128 36 81 23 216 -29 298 -31 47 -80 95 -87 84z"/>
<path d="M6836 9234 c-3 -9 -6 -35 -6 -59 0 -24 -4 -54 -9 -67 -31 -80 -49
-118 -74 -155 -34 -51 -134 -142 -164 -150 -13 -3 -23 -9 -23 -13 0 -4 -10
-11 -22 -15 -50 -17 56 -16 112 1 149 46 237 172 227 328 -8 114 -25 171 -41
130z"/>
<path d="M6935 9209 c4 -19 9 -65 12 -103 11 -158 -77 -299 -237 -378 -54 -27
-52 -32 10 -29 93 5 217 87 261 173 47 93 44 227 -7 315 -33 57 -49 66 -39 22z"/>
<path d="M6734 9172 c-69 -129 -244 -236 -407 -249 l-78 -6 27 -28 c15 -16 44
-40 65 -55 33 -23 45 -25 84 -20 95 15 210 91 267 178 33 50 78 161 78 192 0
29 -17 24 -36 -12z"/>
<path d="M7237 8182 c-19 -21 -22 -73 -7 -103 6 -11 21 -19 35 -19 43 0 61 73
29 118 -18 27 -36 28 -57 4z"/>
<path d="M7896 8165 c-30 -31 -10 -75 34 -75 40 0 65 35 46 65 -17 26 -59 31
-80 10z"/>
<path d="M7233 7393 l-33 -4 0 -474 c0 -305 4 -476 10 -480 5 -3 41 -9 79 -12
182 -15 306 76 363 267 21 72 18 391 -5 455 -46 127 -95 187 -185 227 -47 20
-163 31 -229 21z"/>
<path d="M6435 5406 c-22 -7 -84 -27 -138 -45 -54 -17 -119 -40 -145 -52 -26
-11 -56 -24 -67 -28 -134 -55 -380 -191 -430 -237 -21 -19 -26 -32 -23 -62 l3
-37 260 0 260 -1 86 -30 c48 -17 110 -48 138 -68 56 -42 57 -41 64 39 3 28 12
100 20 160 20 139 47 346 47 363 0 15 -24 15 -75 -2z"/>
<path d="M8098 5010 c-77 -50 -138 -110 -138 -134 0 -48 100 -14 165 56 122
130 109 167 -27 78z"/>
<path d="M9330 7248 c-14 -55 -39 -146 -50 -178 -5 -14 -18 -59 -30 -100 -12
-41 -28 -94 -36 -118 -28 -86 -34 -82 139 -82 85 0 156 2 159 5 5 5 -11 61
-33 120 -7 20 -18 56 -59 195 -12 41 -24 82 -28 90 -3 8 -11 35 -16 59 -15 59
-32 63 -46 9z"/>
<path d="M8212 6143 c4 -36 52 -46 63 -14 9 29 -1 41 -36 41 -27 0 -30 -3 -27
-27z"/>
<path d="M9593 6088 c-14 -30 1 -68 26 -68 27 0 34 15 27 56 -8 40 -37 47 -53
12z"/>
<path d="M8502 6117 c-17 -8 -22 -19 -22 -49 0 -61 53 -65 74 -6 12 35 -20 69
-52 55z"/>
</g>
</svg>
